<svg width="18" height="27" viewBox="0 0 18 27" fill="none" xmlns="http://www.w3.org/2000/svg">
<g clip-path="url(#clip0_15_106)">
<path fill-rule="evenodd" clip-rule="evenodd" d="M3 0C1.34326 0 0 1.34317 0 3V24C0 25.6569 1.34326 27 3 27C4.65674 27 6 25.6569 6 24V3C6 1.34317 4.65674 0 3 0ZM15 0C13.3433 0 12 1.34317 12 3V24C12 25.6569 13.3433 27 15 27C16.6568 27 18 25.6569 18 24V3C18 1.34317 16.6568 0 15 0Z" fill="white"/>
</g>
<defs>
<clipPath id="clip0_15_106">
<rect width="18" height="27" fill="white"/>
</clipPath>
</defs>
</svg>
