<svg width="28" height="22" viewBox="0 0 28 22" fill="none" xmlns="http://www.w3.org/2000/svg">
<path fill-rule="evenodd" clip-rule="evenodd" d="M13.755 0.00109863C13.4345 0.00109863 13.1352 0.156188 12.9381 0.408963C10.2847 3.81237 6.14598 6.0011 1.49609 6.0011C1.21995 6.0011 0.996094 6.22496 0.996094 6.5011V15.5011C0.996094 15.7772 1.21995 16.0011 1.49609 16.0011C6.14598 16.0011 10.2847 18.1898 12.9381 21.5932C13.1352 21.846 13.4345 22.0011 13.755 22.0011H16.9961C17.5484 22.0011 17.9961 21.5534 17.9961 21.0011V1.0011C17.9961 0.448814 17.5484 0.00109863 16.9961 0.00109863H13.755ZM19.9961 14.0011C19.9961 14.5534 20.4508 15.0139 20.986 14.8777C22.7163 14.4372 23.9961 12.8686 23.9961 11.0011C23.9961 9.13361 22.7163 7.56503 20.986 7.12452C20.4508 6.98826 19.9961 7.44881 19.9961 8.00109V14.0011ZM20.9941 18.9395C20.4461 19.0077 19.9961 18.5534 19.9961 18.0011C19.9961 17.4488 20.4472 17.0098 20.9919 16.9188C23.8317 16.4445 25.9961 13.9756 25.9961 11.0011C25.9961 8.02664 23.8317 5.55771 20.9919 5.08336C20.4472 4.99237 19.9961 4.55339 19.9961 4.0011C19.9961 3.44882 20.4461 2.99455 20.9941 3.06275C24.9414 3.55396 27.9961 6.9208 27.9961 11.0011C27.9961 15.0814 24.9414 18.4482 20.9941 18.9395Z" fill="white"/>
</svg>
